<?xml version="1.0" standalone="no"?>
<!DOCTYPE svg PUBLIC "-//W3C//DTD SVG 20010904//EN"
 "http://www.w3.org/TR/2001/REC-SVG-20010904/DTD/svg10.dtd">
<svg version="1.0" xmlns="http://www.w3.org/2000/svg"
 width="700.000000pt" height="700.000000pt" viewBox="0 0 700.000000 700.000000"
 preserveAspectRatio="xMidYMid meet">
<metadata>
Created by potrace 1.14, written by Peter Selinger 2001-2017
</metadata>
<g transform="translate(0.000000,700.000000) scale(0.100000,-0.100000)"
fill="#000000" stroke="none">
<path d="M1386 5772 c-4 -3 -6 -1061 -6 -2352 l0 -2346 783 0 c430 1 787 4
792 8 8 4 11 195 10 590 l0 584 215 -1 215 0 89 -130 c48 -71 184 -272 301
-445 117 -173 257 -380 311 -460 l99 -145 843 -1 c463 0 842 3 842 6 0 4 -69
108 -153 231 -84 123 -211 310 -281 414 -71 105 -153 224 -181 265 -28 41 -96
140 -150 220 -54 80 -124 183 -156 229 l-57 85 74 42 c218 124 402 293 549
503 70 101 179 340 200 441 2 8 10 44 19 80 37 161 54 447 35 605 -5 39 -11
90 -14 115 -3 25 -10 61 -15 80 -5 19 -11 46 -13 60 -14 80 -100 306 -147 385
-16 28 -37 64 -46 80 -36 65 -157 214 -236 292 -268 264 -641 443 -1088 523
-82 14 -109 18 -175 25 -33 4 -78 9 -100 12 -57 7 -2553 12 -2559 5z m2334
-1231 c243 -44 392 -166 447 -366 22 -82 26 -201 9 -294 -30 -167 -120 -290
-259 -357 -41 -19 -87 -37 -103 -40 -16 -2 -35 -7 -43 -10 -40 -14 -157 -19
-466 -19 l-339 0 -1 545 c0 300 3 547 6 550 14 10 685 2 749 -9z"/>
</g>
</svg>
