<?xml version="1.0" standalone="no"?>
<!DOCTYPE svg PUBLIC "-//W3C//DTD SVG 20010904//EN"
 "http://www.w3.org/TR/2001/REC-SVG-20010904/DTD/svg10.dtd">
<svg version="1.0" xmlns="http://www.w3.org/2000/svg"
 width="700.000000pt" height="700.000000pt" viewBox="0 0 700.000000 700.000000"
 preserveAspectRatio="xMidYMid meet">
<metadata>
Created by potrace 1.14, written by Peter Selinger 2001-2017
</metadata>
<g transform="translate(0.000000,700.000000) scale(0.100000,-0.100000)"
fill="#000000" stroke="none">
<path d="M2013 5872 l-723 -2 0 -2449 0 -2450 824 0 824 -1 3 23 c2 12 4 289
3 615 0 325 2 592 5 593 21 4 434 3 440 -1 4 -3 50 -68 103 -145 295 -436 647
-956 711 -1052 l22 -32 878 0 c482 0 877 3 877 7 0 4 -49 79 -109 167 -61 88
-157 230 -215 315 -58 85 -146 216 -197 290 -50 74 -148 218 -218 320 -69 102
-160 236 -203 299 l-77 113 106 64 c585 351 865 925 808 1654 -37 480 -256
901 -619 1192 -91 73 -174 127 -297 196 -29 16 -155 72 -254 112 -30 13 -142
50 -162 55 -10 2 -45 12 -78 21 -66 18 -83 22 -135 30 -19 3 -38 8 -41 10 -4
2 -31 6 -60 10 -30 3 -56 8 -60 10 -3 1 -39 6 -80 10 -40 3 -77 8 -80 10 -26
15 -735 21 -1996 16z m1782 -1301 c264 -70 409 -244 419 -501 13 -344 -145
-547 -474 -607 -19 -3 -206 -8 -416 -10 l-381 -5 0 569 c0 312 1 571 3 575 2
3 176 5 387 3 353 -2 388 -4 462 -24z"/>
</g>
</svg>
