<svg width="500" height="750" xmlns="http://www.w3.org/2000/svg"><path fill="none" d="M95 285h311v180H95z"/><path fill="#cc073c" d="M198.6 338v-51.3h9.9l25.5 31.8-2.2 1.7v-33.5h12.7V338h-10l-25.3-31.6 2-1.9V338h-12.6zM278.1 338.6c-5.3 0-9.9-1.1-13.7-3.2-3.9-2.2-6.8-5.2-8.9-9.1-2.1-3.9-3.1-8.6-3.1-14 0-5.3 1.1-10 3.2-13.9 2.1-3.9 5.1-7 8.9-9.1 3.8-2.1 8.4-3.2 13.7-3.2s9.8 1.1 13.6 3.2c3.8 2.1 6.8 5.2 8.9 9.1 2.1 3.9 3.1 8.6 3.1 13.9 0 5.4-1 10-3.1 14-2.1 3.9-5 7-8.9 9.1-3.9 2.2-8.4 3.2-13.7 3.2zm0-10.3c3.7 0 6.7-1.3 9-4 2.2-2.7 3.3-6.7 3.3-12s-1.1-9.3-3.3-11.9c-2.2-2.7-5.2-4-9-4-3.7 0-6.7 1.3-8.9 4-2.2 2.6-3.3 6.6-3.3 12s1.1 9.4 3.3 12.1c2.2 2.5 5.2 3.8 8.9 3.8zM137.3 398v-51.3h13.5V398h-13.5zM160.2 398v-51.3h10.6l17.6 40.1h-4.5l17.5-40.1h10.5V398h-11.8l-.1-30.8 2.7.8-12.5 30h-8.6l-12.7-30 2.9-.8V398h-11.6zM228.6 398h-13.5l24-51.3h10.7l24 51.3h-13.3l-17.4-40.4h3L228.6 398zm-2.4-10.6l5.3-10.2h25.1l5.2 10.2h-35.6zM301.3 398.6c-5.6 0-10.5-1.1-14.5-3.2-4.1-2.1-7.2-5.1-9.4-9.1-2.2-3.9-3.3-8.6-3.3-14.1 0-5.3 1.1-10 3.3-13.9 2.2-3.9 5.3-7 9.3-9.1 4-2.1 8.7-3.2 14.1-3.2 3.7 0 7.2.5 10.5 1.4 3.3 1 6 2.3 8 4l-4.2 9.6c-2.4-1.5-4.7-2.7-6.8-3.3-2.2-.7-4.5-1-7-1-4.6 0-8 1.3-10.2 3.9-2.2 2.6-3.3 6.5-3.3 11.8 0 5.5 1.2 9.5 3.5 12.2 2.3 2.6 5.9 4 10.8 4 1.5 0 3.1-.1 4.8-.4s3.3-.6 5-1.2l-3 3.9v-12.6H300V369h21.1v25.7c-1.8.9-3.8 1.6-5.9 2.2-2.1.6-4.4 1-6.7 1.3-2.5.3-4.9.4-7.2.4zM329.4 398v-51.3H366v10.4h-23.4v9.6h21.9v10.4h-21.9v10.5H366V398h-36.6zM122.4 458v-51.3h35.8v10.6h-22.5v9.4h21v10.5h-21V458h-13.3zM188.7 458.6c-5.3 0-9.9-1.1-13.7-3.2-3.9-2.2-6.8-5.2-8.9-9.1-2.1-3.9-3.1-8.6-3.1-14 0-5.3 1.1-10 3.2-13.9 2.1-3.9 5.1-7 8.9-9.1 3.8-2.1 8.4-3.2 13.7-3.2 5.3 0 9.8 1.1 13.6 3.2 3.8 2.1 6.8 5.2 8.9 9.1s3.1 8.6 3.1 13.9c0 5.4-1 10-3.1 14-2.1 3.9-5 7-8.9 9.1s-8.4 3.2-13.7 3.2zm0-10.3c3.7 0 6.7-1.3 9-4 2.2-2.7 3.3-6.7 3.3-12s-1.1-9.3-3.3-11.9-5.2-4-9-4c-3.7 0-6.7 1.3-8.9 4-2.2 2.6-3.3 6.6-3.3 12s1.1 9.4 3.3 12.1c2.2 2.5 5.2 3.8 8.9 3.8zM244.8 458.6c-7.5 0-13.2-1.9-17-5.7-3.8-3.8-5.8-9.3-5.8-16.6v-29.7h13.2v30.2c0 3.6.8 6.5 2.4 8.5 1.6 2 4 3 7.1 3 3 0 5.4-1 7-3 1.6-2 2.4-4.8 2.4-8.5v-30.2h13.3v29.7c0 7.2-2 12.7-5.9 16.5-3.7 3.9-9.3 5.8-16.7 5.8zM276.4 458v-51.3h9.9l25.5 31.8-2.2 1.7v-33.5h12.7V458h-10L287 426.4l2-1.9V458h-12.6zM331.6 458v-51.3h21c5.7 0 10.6 1 14.7 3.1 4.1 2 7.2 5 9.4 8.8 2.2 3.8 3.3 8.4 3.3 13.7 0 5.4-1.1 10-3.2 13.8-2.2 3.8-5.3 6.8-9.4 8.8-4.1 2-9 3.1-14.8 3.1h-21zm13.5-10.8h6.5c5 0 8.7-1.2 11.2-3.7s3.7-6.2 3.7-11.2c0-9.8-5-14.8-14.9-14.8h-6.5v29.7z"/></svg>
