<svg xmlns="http://www.w3.org/2000/svg" viewBox="0 0 495 495">
  <path d="M495 103.51V95.5A39.55 39.55 0 00455.5 56h-416A39.55 39.55 0 000 95.5v304A39.55 39.55 0 0039.5 439h416a39.55 39.55 0 0039.5-39.5V103.52zM39.5 71h416C469 71 480 81.99 480 95.5v4.88a122384 122384 0 00-140.72 140.3l-75.16-75.17a23.53 23.53 0 00-33.24 0L15 381.39V95.5C15 81.99 26 71 39.5 71zm416 353h-416a24.53 24.53 0 01-24.32-21.57L241.5 176.12a8.51 8.51 0 0112.02 0l75.16 75.15c-39.41 39.4-69.86 69.98-71.17 71.73a7.5 7.5 0 0011.82 9.24c5.75-6.47 143.64-143.93 210.68-210.69V399.5c0 13.51-11 24.5-24.5 24.5z"/>
  <path d="M103.5 199c21.78 0 39.5-17.72 39.5-39.5S125.28 120 103.5 120 64 137.72 64 159.5 81.72 199 103.5 199zm0-64c13.5 0 24.5 10.99 24.5 24.5S117 184 103.5 184 79 173.01 79 159.5 90 135 103.5 135z"/>
</svg>
